<?xml version="1.0" encoding="utf-8" standalone="no"?>
<!DOCTYPE svg PUBLIC "-//W3C//DTD SVG 1.1//EN"
        "http://www.w3.org/Graphics/SVG/1.1/DTD/svg11.dtd">
<svg xmlns:xlink="http://www.w3.org/1999/xlink" width="460.8pt" height="345.6pt" viewBox="0 0 460.8 345.6"
     xmlns="http://www.w3.org/2000/svg" version="1.1">
    <metadata>
        <rdf:RDF xmlns:dc="http://purl.org/dc/elements/1.1/" xmlns:cc="http://creativecommons.org/ns#"
                 xmlns:rdf="http://www.w3.org/1999/02/22-rdf-syntax-ns#">
            <cc:Work>
                <dc:type rdf:resource="http://purl.org/dc/dcmitype/StillImage"/>
                <dc:date>2024-05-07T02:23:43.229022</dc:date>
                <dc:format>image/svg+xml</dc:format>
                <dc:creator>
                    <cc:Agent>
                        <dc:title>Matplotlib v3.8.4, https://matplotlib.org/</dc:title>
                    </cc:Agent>
                </dc:creator>
            </cc:Work>
        </rdf:RDF>
    </metadata>
    <defs>
        <style type="text/css">*{stroke-linejoin: round; stroke-linecap: butt}</style>
    </defs>
    <g id="figure_1">
        <g id="patch_1">
            <path d="M 0 345.6
L 460.8 345.6 
L 460.8 0 
L 0 0 
z
" style="fill: #ffffff"/>
        </g>
        <g id="axes_1">
            <g id="patch_2">
                <path d="M 57.6 307.584
L 414.72 307.584 
L 414.72 41.472 
L 57.6 41.472 
z
" style="fill: #ffffff"/>
            </g>
            <g id="patch_3">
                <path d="M 110.742103 267.749489
C 117.518011 267.749489 124.017307 265.950683 128.808598 262.749236 
C 133.599888 259.547789 136.291985 255.205086 136.291985 250.677556 
C 136.291985 246.150026 133.599888 241.807323 128.808598 238.605876 
C 124.017307 235.404429 117.518011 233.605623 110.742103 233.605623 
C 103.966195 233.605623 97.466898 235.404429 92.675608 238.605876 
C 87.884317 241.807323 85.192221 246.150026 85.192221 250.677556 
C 85.192221 255.205086 87.884317 259.547789 92.675608 262.749236 
C 97.466898 265.950683 103.966195 267.749489 110.742103 267.749489 
z
" clip-path="url(#p4dec9288bb)" style="fill: #fe1e50; stroke: #fe1e50; stroke-linejoin: miter"/>
            </g>
            <g id="patch_4">
                <path d="M 100.183137 207.936545
C 106.959045 207.936545 113.458341 206.137739 118.249632 202.936292 
C 123.040922 199.734845 125.733019 195.392142 125.733019 190.864612 
C 125.733019 186.337082 123.040922 181.994379 118.249632 178.792932 
C 113.458341 175.591485 106.959045 173.792679 100.183137 173.792679 
C 93.407229 173.792679 86.907932 175.591485 82.116642 178.792932 
C 77.325352 181.994379 74.633255 186.337082 74.633255 190.864612 
C 74.633255 195.392142 77.325352 199.734845 82.116642 202.936292 
C 86.907932 206.137739 93.407229 207.936545 100.183137 207.936545 
z
" clip-path="url(#p4dec9288bb)" style="fill: #ecdfdb; stroke: #ecdfdb; stroke-linejoin: miter"/>
            </g>
            <g id="patch_5">
                <path d="M 215.868094 207.935817
C 222.644002 207.935817 229.143299 206.137011 233.934589 202.935564 
C 238.72588 199.734117 241.417977 195.391414 241.417977 190.863884 
C 241.417977 186.336354 238.72588 181.993651 233.934589 178.792204 
C 229.143299 175.590757 222.644002 173.791951 215.868094 173.791951 
C 209.092187 173.791951 202.59289 175.590757 197.8016 178.792204 
C 193.010309 181.993651 190.318212 186.336354 190.318212 190.863884 
C 190.318212 195.391414 193.010309 199.734117 197.8016 202.935564 
C 202.59289 206.137011 209.092187 207.935817 215.868094 207.935817 
z
" clip-path="url(#p4dec9288bb)" style="fill: #96c8a2; stroke: #96c8a2; stroke-linejoin: miter"/>
            </g>
            <g id="patch_6">
                <path d="M 329.553726 207.860838
C 336.329634 207.860838 342.828931 206.062032 347.620221 202.860585 
C 352.411512 199.659138 355.103608 195.316435 355.103608 190.788905 
C 355.103608 186.261375 352.411512 181.918672 347.620221 178.717225 
C 342.828931 175.515778 336.329634 173.716972 329.553726 173.716972 
C 322.777818 173.716972 316.278522 175.515778 311.487231 178.717225 
C 306.695941 181.918672 304.003844 186.261375 304.003844 190.788905 
C 304.003844 195.316435 306.695941 199.659138 311.487231 202.860585 
C 316.278522 206.062032 322.777818 207.860838 329.553726 207.860838 
z
" clip-path="url(#p4dec9288bb)" style="fill: #ecdfdb; stroke: #ecdfdb; stroke-linejoin: miter"/>
            </g>
            <g id="patch_7">
                <path d="M 100.184139 87.010008
C 106.960047 87.010008 113.459343 85.211202 118.250633 82.009755 
C 123.041924 78.808308 125.734021 74.465605 125.734021 69.938075 
C 125.734021 65.410545 123.041924 61.067842 118.250633 57.866395 
C 113.459343 54.664948 106.960047 52.866142 100.184139 52.866142 
C 93.408231 52.866142 86.908934 54.664948 82.117644 57.866395 
C 77.326353 61.067842 74.634256 65.410545 74.634256 69.938075 
C 74.634256 74.465605 77.326353 78.808308 82.117644 82.009755 
C 86.908934 85.211202 93.408231 87.010008 100.184139 87.010008 
z
" clip-path="url(#p4dec9288bb)" style="fill: #ecdfdb; stroke: #ecdfdb; stroke-linejoin: miter"/>
            </g>
            <g id="patch_8">
                <path d="M 216.113727 86.997155
C 222.889635 86.997155 229.388932 85.198349 234.180222 81.996902 
C 238.971513 78.795455 241.663609 74.452752 241.663609 69.925222 
C 241.663609 65.397692 238.971513 61.054989 234.180222 57.853542 
C 229.388932 54.652095 222.889635 52.853289 216.113727 52.853289 
C 209.337819 52.853289 202.838523 54.652095 198.047232 57.853542 
C 193.255942 61.054989 190.563845 65.397692 190.563845 69.925222 
C 190.563845 74.452752 193.255942 78.795455 198.047232 81.996902 
C 202.838523 85.198349 209.337819 86.997155 216.113727 86.997155 
z
" clip-path="url(#p4dec9288bb)" style="fill: #ecdfdb; stroke: #ecdfdb; stroke-linejoin: miter"/>
            </g>
            <g id="patch_9">
                <path d="M 329.423543 87.009895
C 336.199451 87.009895 342.698747 85.211089 347.490038 82.009642 
C 352.281328 78.808195 354.973425 74.465492 354.973425 69.937962 
C 354.973425 65.410432 352.281328 61.067729 347.490038 57.866282 
C 342.698747 54.664835 336.199451 52.866029 329.423543 52.866029 
C 322.647635 52.866029 316.148338 54.664835 311.357048 57.866282 
C 306.565757 61.067729 303.873661 65.410432 303.873661 69.937962 
C 303.873661 74.465492 306.565757 78.808195 311.357048 82.009642 
C 316.148338 85.211089 322.647635 87.009895 329.423543 87.009895 
z
" clip-path="url(#p4dec9288bb)" style="fill: #ecdfdb; stroke: #ecdfdb; stroke-linejoin: miter"/>
            </g>
            <g id="patch_10">
                <path d="M 301.874701 190.80716
L 289.103969 193.660906 
L 289.09978 190.82507 
L 242.127697 190.856049 
L 242.127669 190.837081 
L 289.099752 190.806101 
L 289.095563 187.970265 
z
" clip-path="url(#p4dec9288bb)" style="stroke: #000000; stroke-linejoin: miter"/>
            </g>
            <g id="patch_11">
                <path d="M 329.443466 88.432551
L 333.710973 96.966468 
L 329.466855 96.968509 
L 329.54902 173.242749 
L 329.520631 173.242763 
L 329.438466 96.968523 
L 325.194348 96.970564 
z
" clip-path="url(#p4dec9288bb)" style="stroke: #000000; stroke-linejoin: miter"/>
            </g>
            <g id="patch_12">
                <path d="M 243.792766 69.928334
L 256.568423 67.084448 
L 256.567709 69.920286 
L 303.163944 69.925525 
L 303.16394 69.944494 
L 256.567704 69.939255 
L 256.56699 72.775093 
z
" clip-path="url(#p4dec9288bb)" style="stroke: #000000; stroke-linejoin: miter"/>
            </g>
            <g id="patch_13">
                <path d="M 127.863177 69.935006
L 140.637411 67.088268 
L 140.638116 69.924105 
L 189.854124 69.918649 
L 189.854129 69.937618 
L 140.63812 69.943074 
L 140.638825 72.778912 
z
" clip-path="url(#p4dec9288bb)" style="stroke: #000000; stroke-linejoin: miter"/>
            </g>
            <g id="patch_14">
                <path d="M 100.18329 172.370018
L 95.925047 163.834035 
L 100.169166 163.834051 
L 100.169799 87.484228 
L 100.198188 87.484229 
L 100.197555 163.834051 
L 104.441674 163.834067 
z
" clip-path="url(#p4dec9288bb)" style="stroke: #000000; stroke-linejoin: miter"/>
            </g>
            <g id="patch_15">
                <path d="M 107.499673 232.310298
L 101.774172 224.166414 
L 105.989071 223.834213 
L 103.245191 208.291071 
L 103.273385 208.288848 
L 106.017264 223.831991 
L 110.232162 223.49979 
z
" clip-path="url(#p4dec9288bb)" style="stroke: #000000; stroke-linejoin: miter"/>
            </g>
            <g id="matplotlib.axis_1">
                <g id="xtick_1">
                    <g id="line2d_1">
                        <defs>
                            <path id="meac6338a03" d="M 0 0
L 0 3.5 
" style="stroke: #000000; stroke-width: 0.8"/>
                        </defs>
                        <g>
                            <use xlink:href="#meac6338a03" x="102.313046" y="307.584"
                                 style="stroke: #000000; stroke-width: 0.8"/>
                        </g>
                    </g>
                    <g id="text_1">
                        <!-- −4 -->
                        <g transform="translate(94.941953 322.182437) scale(0.1 -0.1)">
                            <defs>
                                <path id="DejaVuSans-2212" d="M 678 2272
L 4684 2272 
L 4684 1741 
L 678 1741 
L 678 2272 
z
" transform="scale(0.015625)"/>
                                <path id="DejaVuSans-34" d="M 2419 4116
L 825 1625 
L 2419 1625 
L 2419 4116 
z
M 2253 4666 
L 3047 4666 
L 3047 1625 
L 3713 1625 
L 3713 1100 
L 3047 1100 
L 3047 0 
L 2419 0 
L 2419 1100 
L 313 1100 
L 313 1709 
L 2253 4666 
z
" transform="scale(0.015625)"/>
                            </defs>
                            <use xlink:href="#DejaVuSans-2212"/>
                            <use xlink:href="#DejaVuSans-34" x="83.789062"/>
                        </g>
                    </g>
                </g>
                <g id="xtick_2">
                    <g id="line2d_2">
                        <g>
                            <use xlink:href="#meac6338a03" x="159.090562" y="307.584"
                                 style="stroke: #000000; stroke-width: 0.8"/>
                        </g>
                    </g>
                    <g id="text_2">
                        <!-- −2 -->
                        <g transform="translate(151.719468 322.182437) scale(0.1 -0.1)">
                            <defs>
                                <path id="DejaVuSans-32" d="M 1228 531
L 3431 531 
L 3431 0 
L 469 0 
L 469 531 
Q 828 903 1448 1529 
Q 2069 2156 2228 2338 
Q 2531 2678 2651 2914 
Q 2772 3150 2772 3378 
Q 2772 3750 2511 3984 
Q 2250 4219 1831 4219 
Q 1534 4219 1204 4116 
Q 875 4013 500 3803 
L 500 4441 
Q 881 4594 1212 4672 
Q 1544 4750 1819 4750 
Q 2544 4750 2975 4387 
Q 3406 4025 3406 3419 
Q 3406 3131 3298 2873 
Q 3191 2616 2906 2266 
Q 2828 2175 2409 1742 
Q 1991 1309 1228 531 
z
" transform="scale(0.015625)"/>
                            </defs>
                            <use xlink:href="#DejaVuSans-2212"/>
                            <use xlink:href="#DejaVuSans-32" x="83.789062"/>
                        </g>
                    </g>
                </g>
                <g id="xtick_3">
                    <g id="line2d_3">
                        <g>
                            <use xlink:href="#meac6338a03" x="215.868078" y="307.584"
                                 style="stroke: #000000; stroke-width: 0.8"/>
                        </g>
                    </g>
                    <g id="text_3">
                        <!-- 0 -->
                        <g transform="translate(212.686828 322.182437) scale(0.1 -0.1)">
                            <defs>
                                <path id="DejaVuSans-30" d="M 2034 4250
Q 1547 4250 1301 3770 
Q 1056 3291 1056 2328 
Q 1056 1369 1301 889 
Q 1547 409 2034 409 
Q 2525 409 2770 889 
Q 3016 1369 3016 2328 
Q 3016 3291 2770 3770 
Q 2525 4250 2034 4250 
z
M 2034 4750 
Q 2819 4750 3233 4129 
Q 3647 3509 3647 2328 
Q 3647 1150 3233 529 
Q 2819 -91 2034 -91 
Q 1250 -91 836 529 
Q 422 1150 422 2328 
Q 422 3509 836 4129 
Q 1250 4750 2034 4750 
z
" transform="scale(0.015625)"/>
                            </defs>
                            <use xlink:href="#DejaVuSans-30"/>
                        </g>
                    </g>
                </g>
                <g id="xtick_4">
                    <g id="line2d_4">
                        <g>
                            <use xlink:href="#meac6338a03" x="272.645594" y="307.584"
                                 style="stroke: #000000; stroke-width: 0.8"/>
                        </g>
                    </g>
                    <g id="text_4">
                        <!-- 2 -->
                        <g transform="translate(269.464344 322.182437) scale(0.1 -0.1)">
                            <use xlink:href="#DejaVuSans-32"/>
                        </g>
                    </g>
                </g>
                <g id="xtick_5">
                    <g id="line2d_5">
                        <g>
                            <use xlink:href="#meac6338a03" x="329.42311" y="307.584"
                                 style="stroke: #000000; stroke-width: 0.8"/>
                        </g>
                    </g>
                    <g id="text_5">
                        <!-- 4 -->
                        <g transform="translate(326.24186 322.182437) scale(0.1 -0.1)">
                            <use xlink:href="#DejaVuSans-34"/>
                        </g>
                    </g>
                </g>
                <g id="xtick_6">
                    <g id="line2d_6">
                        <g>
                            <use xlink:href="#meac6338a03" x="386.200625" y="307.584"
                                 style="stroke: #000000; stroke-width: 0.8"/>
                        </g>
                    </g>
                    <g id="text_6">
                        <!-- 6 -->
                        <g transform="translate(383.019375 322.182437) scale(0.1 -0.1)">
                            <defs>
                                <path id="DejaVuSans-36" d="M 2113 2584
Q 1688 2584 1439 2293 
Q 1191 2003 1191 1497 
Q 1191 994 1439 701 
Q 1688 409 2113 409 
Q 2538 409 2786 701 
Q 3034 994 3034 1497 
Q 3034 2003 2786 2293 
Q 2538 2584 2113 2584 
z
M 3366 4563 
L 3366 3988 
Q 3128 4100 2886 4159 
Q 2644 4219 2406 4219 
Q 1781 4219 1451 3797 
Q 1122 3375 1075 2522 
Q 1259 2794 1537 2939 
Q 1816 3084 2150 3084 
Q 2853 3084 3261 2657 
Q 3669 2231 3669 1497 
Q 3669 778 3244 343 
Q 2819 -91 2113 -91 
Q 1303 -91 875 529 
Q 447 1150 447 2328 
Q 447 3434 972 4092 
Q 1497 4750 2381 4750 
Q 2619 4750 2861 4703 
Q 3103 4656 3366 4563 
z
" transform="scale(0.015625)"/>
                            </defs>
                            <use xlink:href="#DejaVuSans-36"/>
                        </g>
                    </g>
                </g>
                <g id="text_7">
                    <!-- x-coordinates (m) -->
                    <g transform="translate(165.12375 340.419625) scale(0.16 -0.16)">
                        <defs>
                            <path id="DejaVuSans-78" d="M 3513 3500
L 2247 1797 
L 3578 0 
L 2900 0 
L 1881 1375 
L 863 0 
L 184 0 
L 1544 1831 
L 300 3500 
L 978 3500 
L 1906 2253 
L 2834 3500 
L 3513 3500 
z
" transform="scale(0.015625)"/>
                            <path id="DejaVuSans-2d" d="M 313 2009
L 1997 2009 
L 1997 1497 
L 313 1497 
L 313 2009 
z
" transform="scale(0.015625)"/>
                            <path id="DejaVuSans-63" d="M 3122 3366
L 3122 2828 
Q 2878 2963 2633 3030 
Q 2388 3097 2138 3097 
Q 1578 3097 1268 2742 
Q 959 2388 959 1747 
Q 959 1106 1268 751 
Q 1578 397 2138 397 
Q 2388 397 2633 464 
Q 2878 531 3122 666 
L 3122 134 
Q 2881 22 2623 -34 
Q 2366 -91 2075 -91 
Q 1284 -91 818 406 
Q 353 903 353 1747 
Q 353 2603 823 3093 
Q 1294 3584 2113 3584 
Q 2378 3584 2631 3529 
Q 2884 3475 3122 3366 
z
" transform="scale(0.015625)"/>
                            <path id="DejaVuSans-6f" d="M 1959 3097
Q 1497 3097 1228 2736 
Q 959 2375 959 1747 
Q 959 1119 1226 758 
Q 1494 397 1959 397 
Q 2419 397 2687 759 
Q 2956 1122 2956 1747 
Q 2956 2369 2687 2733 
Q 2419 3097 1959 3097 
z
M 1959 3584 
Q 2709 3584 3137 3096 
Q 3566 2609 3566 1747 
Q 3566 888 3137 398 
Q 2709 -91 1959 -91 
Q 1206 -91 779 398 
Q 353 888 353 1747 
Q 353 2609 779 3096 
Q 1206 3584 1959 3584 
z
" transform="scale(0.015625)"/>
                            <path id="DejaVuSans-72" d="M 2631 2963
Q 2534 3019 2420 3045 
Q 2306 3072 2169 3072 
Q 1681 3072 1420 2755 
Q 1159 2438 1159 1844 
L 1159 0 
L 581 0 
L 581 3500 
L 1159 3500 
L 1159 2956 
Q 1341 3275 1631 3429 
Q 1922 3584 2338 3584 
Q 2397 3584 2469 3576 
Q 2541 3569 2628 3553 
L 2631 2963 
z
" transform="scale(0.015625)"/>
                            <path id="DejaVuSans-64" d="M 2906 2969
L 2906 4863 
L 3481 4863 
L 3481 0 
L 2906 0 
L 2906 525 
Q 2725 213 2448 61 
Q 2172 -91 1784 -91 
Q 1150 -91 751 415 
Q 353 922 353 1747 
Q 353 2572 751 3078 
Q 1150 3584 1784 3584 
Q 2172 3584 2448 3432 
Q 2725 3281 2906 2969 
z
M 947 1747 
Q 947 1113 1208 752 
Q 1469 391 1925 391 
Q 2381 391 2643 752 
Q 2906 1113 2906 1747 
Q 2906 2381 2643 2742 
Q 2381 3103 1925 3103 
Q 1469 3103 1208 2742 
Q 947 2381 947 1747 
z
" transform="scale(0.015625)"/>
                            <path id="DejaVuSans-69" d="M 603 3500
L 1178 3500 
L 1178 0 
L 603 0 
L 603 3500 
z
M 603 4863 
L 1178 4863 
L 1178 4134 
L 603 4134 
L 603 4863 
z
" transform="scale(0.015625)"/>
                            <path id="DejaVuSans-6e" d="M 3513 2113
L 3513 0 
L 2938 0 
L 2938 2094 
Q 2938 2591 2744 2837 
Q 2550 3084 2163 3084 
Q 1697 3084 1428 2787 
Q 1159 2491 1159 1978 
L 1159 0 
L 581 0 
L 581 3500 
L 1159 3500 
L 1159 2956 
Q 1366 3272 1645 3428 
Q 1925 3584 2291 3584 
Q 2894 3584 3203 3211 
Q 3513 2838 3513 2113 
z
" transform="scale(0.015625)"/>
                            <path id="DejaVuSans-61" d="M 2194 1759
Q 1497 1759 1228 1600 
Q 959 1441 959 1056 
Q 959 750 1161 570 
Q 1363 391 1709 391 
Q 2188 391 2477 730 
Q 2766 1069 2766 1631 
L 2766 1759 
L 2194 1759 
z
M 3341 1997 
L 3341 0 
L 2766 0 
L 2766 531 
Q 2569 213 2275 61 
Q 1981 -91 1556 -91 
Q 1019 -91 701 211 
Q 384 513 384 1019 
Q 384 1609 779 1909 
Q 1175 2209 1959 2209 
L 2766 2209 
L 2766 2266 
Q 2766 2663 2505 2880 
Q 2244 3097 1772 3097 
Q 1472 3097 1187 3025 
Q 903 2953 641 2809 
L 641 3341 
Q 956 3463 1253 3523 
Q 1550 3584 1831 3584 
Q 2591 3584 2966 3190 
Q 3341 2797 3341 1997 
z
" transform="scale(0.015625)"/>
                            <path id="DejaVuSans-74" d="M 1172 4494
L 1172 3500 
L 2356 3500 
L 2356 3053 
L 1172 3053 
L 1172 1153 
Q 1172 725 1289 603 
Q 1406 481 1766 481 
L 2356 481 
L 2356 0 
L 1766 0 
Q 1100 0 847 248 
Q 594 497 594 1153 
L 594 3053 
L 172 3053 
L 172 3500 
L 594 3500 
L 594 4494 
L 1172 4494 
z
" transform="scale(0.015625)"/>
                            <path id="DejaVuSans-65" d="M 3597 1894
L 3597 1613 
L 953 1613 
Q 991 1019 1311 708 
Q 1631 397 2203 397 
Q 2534 397 2845 478 
Q 3156 559 3463 722 
L 3463 178 
Q 3153 47 2828 -22 
Q 2503 -91 2169 -91 
Q 1331 -91 842 396 
Q 353 884 353 1716 
Q 353 2575 817 3079 
Q 1281 3584 2069 3584 
Q 2775 3584 3186 3129 
Q 3597 2675 3597 1894 
z
M 3022 2063 
Q 3016 2534 2758 2815 
Q 2500 3097 2075 3097 
Q 1594 3097 1305 2825 
Q 1016 2553 972 2059 
L 3022 2063 
z
" transform="scale(0.015625)"/>
                            <path id="DejaVuSans-73" d="M 2834 3397
L 2834 2853 
Q 2591 2978 2328 3040 
Q 2066 3103 1784 3103 
Q 1356 3103 1142 2972 
Q 928 2841 928 2578 
Q 928 2378 1081 2264 
Q 1234 2150 1697 2047 
L 1894 2003 
Q 2506 1872 2764 1633 
Q 3022 1394 3022 966 
Q 3022 478 2636 193 
Q 2250 -91 1575 -91 
Q 1294 -91 989 -36 
Q 684 19 347 128 
L 347 722 
Q 666 556 975 473 
Q 1284 391 1588 391 
Q 1994 391 2212 530 
Q 2431 669 2431 922 
Q 2431 1156 2273 1281 
Q 2116 1406 1581 1522 
L 1381 1569 
Q 847 1681 609 1914 
Q 372 2147 372 2553 
Q 372 3047 722 3315 
Q 1072 3584 1716 3584 
Q 2034 3584 2315 3537 
Q 2597 3491 2834 3397 
z
" transform="scale(0.015625)"/>
                            <path id="DejaVuSans-20" transform="scale(0.015625)"/>
                            <path id="DejaVuSans-28" d="M 1984 4856
Q 1566 4138 1362 3434 
Q 1159 2731 1159 2009 
Q 1159 1288 1364 580 
Q 1569 -128 1984 -844 
L 1484 -844 
Q 1016 -109 783 600 
Q 550 1309 550 2009 
Q 550 2706 781 3412 
Q 1013 4119 1484 4856 
L 1984 4856 
z
" transform="scale(0.015625)"/>
                            <path id="DejaVuSans-6d" d="M 3328 2828
Q 3544 3216 3844 3400 
Q 4144 3584 4550 3584 
Q 5097 3584 5394 3201 
Q 5691 2819 5691 2113 
L 5691 0 
L 5113 0 
L 5113 2094 
Q 5113 2597 4934 2840 
Q 4756 3084 4391 3084 
Q 3944 3084 3684 2787 
Q 3425 2491 3425 1978 
L 3425 0 
L 2847 0 
L 2847 2094 
Q 2847 2600 2669 2842 
Q 2491 3084 2119 3084 
Q 1678 3084 1418 2786 
Q 1159 2488 1159 1978 
L 1159 0 
L 581 0 
L 581 3500 
L 1159 3500 
L 1159 2956 
Q 1356 3278 1631 3431 
Q 1906 3584 2284 3584 
Q 2666 3584 2933 3390 
Q 3200 3197 3328 2828 
z
" transform="scale(0.015625)"/>
                            <path id="DejaVuSans-29" d="M 513 4856
L 1013 4856 
Q 1481 4119 1714 3412 
Q 1947 2706 1947 2009 
Q 1947 1309 1714 600 
Q 1481 -109 1013 -844 
L 513 -844 
Q 928 -128 1133 580 
Q 1338 1288 1338 2009 
Q 1338 2731 1133 3434 
Q 928 4138 513 4856 
z
" transform="scale(0.015625)"/>
                        </defs>
                        <use xlink:href="#DejaVuSans-78"/>
                        <use xlink:href="#DejaVuSans-2d" x="59.179688"/>
                        <use xlink:href="#DejaVuSans-63" x="95.263672"/>
                        <use xlink:href="#DejaVuSans-6f" x="150.244141"/>
                        <use xlink:href="#DejaVuSans-6f" x="211.425781"/>
                        <use xlink:href="#DejaVuSans-72" x="272.607422"/>
                        <use xlink:href="#DejaVuSans-64" x="311.970703"/>
                        <use xlink:href="#DejaVuSans-69" x="375.447266"/>
                        <use xlink:href="#DejaVuSans-6e" x="403.230469"/>
                        <use xlink:href="#DejaVuSans-61" x="466.609375"/>
                        <use xlink:href="#DejaVuSans-74" x="527.888672"/>
                        <use xlink:href="#DejaVuSans-65" x="567.097656"/>
                        <use xlink:href="#DejaVuSans-73" x="628.621094"/>
                        <use xlink:href="#DejaVuSans-20" x="680.720703"/>
                        <use xlink:href="#DejaVuSans-28" x="712.507812"/>
                        <use xlink:href="#DejaVuSans-6d" x="751.521484"/>
                        <use xlink:href="#DejaVuSans-29" x="848.933594"/>
                    </g>
                </g>
            </g>
            <g id="matplotlib.axis_2">
                <g id="ytick_1">
                    <g id="line2d_7">
                        <defs>
                            <path id="mc9bc4fdfda" d="M 0 0
L -3.5 0 
" style="stroke: #000000; stroke-width: 0.8"/>
                        </defs>
                        <g>
                            <use xlink:href="#mc9bc4fdfda" x="57.6" y="283.680775"
                                 style="stroke: #000000; stroke-width: 0.8"/>
                        </g>
                    </g>
                    <g id="text_8">
                        <!-- −8 -->
                        <g transform="translate(35.857813 287.479993) scale(0.1 -0.1)">
                            <defs>
                                <path id="DejaVuSans-38" d="M 2034 2216
Q 1584 2216 1326 1975 
Q 1069 1734 1069 1313 
Q 1069 891 1326 650 
Q 1584 409 2034 409 
Q 2484 409 2743 651 
Q 3003 894 3003 1313 
Q 3003 1734 2745 1975 
Q 2488 2216 2034 2216 
z
M 1403 2484 
Q 997 2584 770 2862 
Q 544 3141 544 3541 
Q 544 4100 942 4425 
Q 1341 4750 2034 4750 
Q 2731 4750 3128 4425 
Q 3525 4100 3525 3541 
Q 3525 3141 3298 2862 
Q 3072 2584 2669 2484 
Q 3125 2378 3379 2068 
Q 3634 1759 3634 1313 
Q 3634 634 3220 271 
Q 2806 -91 2034 -91 
Q 1263 -91 848 271 
Q 434 634 434 1313 
Q 434 1759 690 2068 
Q 947 2378 1403 2484 
z
M 1172 3481 
Q 1172 3119 1398 2916 
Q 1625 2713 2034 2713 
Q 2441 2713 2670 2916 
Q 2900 3119 2900 3481 
Q 2900 3844 2670 4047 
Q 2441 4250 2034 4250 
Q 1625 4250 1398 4047 
Q 1172 3844 1172 3481 
z
" transform="scale(0.015625)"/>
                            </defs>
                            <use xlink:href="#DejaVuSans-2212"/>
                            <use xlink:href="#DejaVuSans-38" x="83.789062"/>
                        </g>
                    </g>
                </g>
                <g id="ytick_2">
                    <g id="line2d_8">
                        <g>
                            <use xlink:href="#mc9bc4fdfda" x="57.6" y="245.743145"
                                 style="stroke: #000000; stroke-width: 0.8"/>
                        </g>
                    </g>
                    <g id="text_9">
                        <!-- −6 -->
                        <g transform="translate(35.857813 249.542364) scale(0.1 -0.1)">
                            <use xlink:href="#DejaVuSans-2212"/>
                            <use xlink:href="#DejaVuSans-36" x="83.789062"/>
                        </g>
                    </g>
                </g>
                <g id="ytick_3">
                    <g id="line2d_9">
                        <g>
                            <use xlink:href="#mc9bc4fdfda" x="57.6" y="207.805516"
                                 style="stroke: #000000; stroke-width: 0.8"/>
                        </g>
                    </g>
                    <g id="text_10">
                        <!-- −4 -->
                        <g transform="translate(35.857813 211.604735) scale(0.1 -0.1)">
                            <use xlink:href="#DejaVuSans-2212"/>
                            <use xlink:href="#DejaVuSans-34" x="83.789062"/>
                        </g>
                    </g>
                </g>
                <g id="ytick_4">
                    <g id="line2d_10">
                        <g>
                            <use xlink:href="#mc9bc4fdfda" x="57.6" y="169.867887"
                                 style="stroke: #000000; stroke-width: 0.8"/>
                        </g>
                    </g>
                    <g id="text_11">
                        <!-- −2 -->
                        <g transform="translate(35.857813 173.667106) scale(0.1 -0.1)">
                            <use xlink:href="#DejaVuSans-2212"/>
                            <use xlink:href="#DejaVuSans-32" x="83.789062"/>
                        </g>
                    </g>
                </g>
                <g id="ytick_5">
                    <g id="line2d_11">
                        <g>
                            <use xlink:href="#mc9bc4fdfda" x="57.6" y="131.930258"
                                 style="stroke: #000000; stroke-width: 0.8"/>
                        </g>
                    </g>
                    <g id="text_12">
                        <!-- 0 -->
                        <g transform="translate(44.2375 135.729476) scale(0.1 -0.1)">
                            <use xlink:href="#DejaVuSans-30"/>
                        </g>
                    </g>
                </g>
                <g id="ytick_6">
                    <g id="line2d_12">
                        <g>
                            <use xlink:href="#mc9bc4fdfda" x="57.6" y="93.992628"
                                 style="stroke: #000000; stroke-width: 0.8"/>
                        </g>
                    </g>
                    <g id="text_13">
                        <!-- 2 -->
                        <g transform="translate(44.2375 97.791847) scale(0.1 -0.1)">
                            <use xlink:href="#DejaVuSans-32"/>
                        </g>
                    </g>
                </g>
                <g id="ytick_7">
                    <g id="line2d_13">
                        <g>
                            <use xlink:href="#mc9bc4fdfda" x="57.6" y="56.054999"
                                 style="stroke: #000000; stroke-width: 0.8"/>
                        </g>
                    </g>
                    <g id="text_14">
                        <!-- 4 -->
                        <g transform="translate(44.2375 59.854218) scale(0.1 -0.1)">
                            <use xlink:href="#DejaVuSans-34"/>
                        </g>
                    </g>
                </g>
                <g id="text_15">
                    <!-- y-coordinates (m) -->
                    <g transform="translate(28.530312 245.42425) rotate(-90) scale(0.16 -0.16)">
                        <defs>
                            <path id="DejaVuSans-79" d="M 2059 -325
Q 1816 -950 1584 -1140 
Q 1353 -1331 966 -1331 
L 506 -1331 
L 506 -850 
L 844 -850 
Q 1081 -850 1212 -737 
Q 1344 -625 1503 -206 
L 1606 56 
L 191 3500 
L 800 3500 
L 1894 763 
L 2988 3500 
L 3597 3500 
L 2059 -325 
z
" transform="scale(0.015625)"/>
                        </defs>
                        <use xlink:href="#DejaVuSans-79"/>
                        <use xlink:href="#DejaVuSans-2d" x="57.429688"/>
                        <use xlink:href="#DejaVuSans-63" x="93.513672"/>
                        <use xlink:href="#DejaVuSans-6f" x="148.494141"/>
                        <use xlink:href="#DejaVuSans-6f" x="209.675781"/>
                        <use xlink:href="#DejaVuSans-72" x="270.857422"/>
                        <use xlink:href="#DejaVuSans-64" x="310.220703"/>
                        <use xlink:href="#DejaVuSans-69" x="373.697266"/>
                        <use xlink:href="#DejaVuSans-6e" x="401.480469"/>
                        <use xlink:href="#DejaVuSans-61" x="464.859375"/>
                        <use xlink:href="#DejaVuSans-74" x="526.138672"/>
                        <use xlink:href="#DejaVuSans-65" x="565.347656"/>
                        <use xlink:href="#DejaVuSans-73" x="626.871094"/>
                        <use xlink:href="#DejaVuSans-20" x="678.970703"/>
                        <use xlink:href="#DejaVuSans-28" x="710.757812"/>
                        <use xlink:href="#DejaVuSans-6d" x="749.771484"/>
                        <use xlink:href="#DejaVuSans-29" x="847.183594"/>
                    </g>
                </g>
            </g>
            <g id="patch_16">
                <path d="M 57.6 307.584
L 57.6 41.472 
" style="fill: none; stroke: #000000; stroke-width: 0.8; stroke-linejoin: miter; stroke-linecap: square"/>
            </g>
            <g id="patch_17">
                <path d="M 414.72 307.584
L 414.72 41.472 
" style="fill: none; stroke: #000000; stroke-width: 0.8; stroke-linejoin: miter; stroke-linecap: square"/>
            </g>
            <g id="patch_18">
                <path d="M 57.6 307.584
L 414.72 307.584 
" style="fill: none; stroke: #000000; stroke-width: 0.8; stroke-linejoin: miter; stroke-linecap: square"/>
            </g>
            <g id="patch_19">
                <path d="M 57.6 41.472
L 414.72 41.472 
" style="fill: none; stroke: #000000; stroke-width: 0.8; stroke-linejoin: miter; stroke-linecap: square"/>
            </g>
            <g id="text_16">
                <!-- Depot -->
                <g transform="translate(87.017571 254.540681) scale(0.14 -0.14)">
                    <defs>
                        <path id="DejaVuSans-Bold-44" d="M 1791 3756
L 1791 909 
L 2222 909 
Q 2959 909 3348 1275 
Q 3738 1641 3738 2338 
Q 3738 3031 3350 3393 
Q 2963 3756 2222 3756 
L 1791 3756 
z
M 588 4666 
L 1856 4666 
Q 2919 4666 3439 4514 
Q 3959 4363 4331 4000 
Q 4659 3684 4818 3271 
Q 4978 2859 4978 2338 
Q 4978 1809 4818 1395 
Q 4659 981 4331 666 
Q 3956 303 3431 151 
Q 2906 0 1856 0 
L 588 0 
L 588 4666 
z
" transform="scale(0.015625)"/>
                        <path id="DejaVuSans-Bold-65" d="M 4031 1759
L 4031 1441 
L 1416 1441 
Q 1456 1047 1700 850 
Q 1944 653 2381 653 
Q 2734 653 3104 758 
Q 3475 863 3866 1075 
L 3866 213 
Q 3469 63 3072 -14 
Q 2675 -91 2278 -91 
Q 1328 -91 801 392 
Q 275 875 275 1747 
Q 275 2603 792 3093 
Q 1309 3584 2216 3584 
Q 3041 3584 3536 3087 
Q 4031 2591 4031 1759 
z
M 2881 2131 
Q 2881 2450 2695 2645 
Q 2509 2841 2209 2841 
Q 1884 2841 1681 2658 
Q 1478 2475 1428 2131 
L 2881 2131 
z
" transform="scale(0.015625)"/>
                        <path id="DejaVuSans-Bold-70" d="M 1656 506
L 1656 -1331 
L 538 -1331 
L 538 3500 
L 1656 3500 
L 1656 2988 
Q 1888 3294 2169 3439 
Q 2450 3584 2816 3584 
Q 3463 3584 3878 3070 
Q 4294 2556 4294 1747 
Q 4294 938 3878 423 
Q 3463 -91 2816 -91 
Q 2450 -91 2169 54 
Q 1888 200 1656 506 
z
M 2400 2772 
Q 2041 2772 1848 2508 
Q 1656 2244 1656 1747 
Q 1656 1250 1848 986 
Q 2041 722 2400 722 
Q 2759 722 2948 984 
Q 3138 1247 3138 1747 
Q 3138 2247 2948 2509 
Q 2759 2772 2400 2772 
z
" transform="scale(0.015625)"/>
                        <path id="DejaVuSans-Bold-6f" d="M 2203 2784
Q 1831 2784 1636 2517 
Q 1441 2250 1441 1747 
Q 1441 1244 1636 976 
Q 1831 709 2203 709 
Q 2569 709 2762 976 
Q 2956 1244 2956 1747 
Q 2956 2250 2762 2517 
Q 2569 2784 2203 2784 
z
M 2203 3584 
Q 3106 3584 3614 3096 
Q 4122 2609 4122 1747 
Q 4122 884 3614 396 
Q 3106 -91 2203 -91 
Q 1297 -91 786 396 
Q 275 884 275 1747 
Q 275 2609 786 3096 
Q 1297 3584 2203 3584 
z
" transform="scale(0.015625)"/>
                        <path id="DejaVuSans-Bold-74" d="M 1759 4494
L 1759 3500 
L 2913 3500 
L 2913 2700 
L 1759 2700 
L 1759 1216 
Q 1759 972 1856 886 
Q 1953 800 2241 800 
L 2816 800 
L 2816 0 
L 1856 0 
Q 1194 0 917 276 
Q 641 553 641 1216 
L 641 2700 
L 84 2700 
L 84 3500 
L 641 3500 
L 641 4494 
L 1759 4494 
z
" transform="scale(0.015625)"/>
                    </defs>
                    <use xlink:href="#DejaVuSans-Bold-44"/>
                    <use xlink:href="#DejaVuSans-Bold-65" x="83.007812"/>
                    <use xlink:href="#DejaVuSans-Bold-70" x="150.830078"/>
                    <use xlink:href="#DejaVuSans-Bold-6f" x="222.412109"/>
                    <use xlink:href="#DejaVuSans-Bold-74" x="291.113281"/>
                </g>
            </g>
            <g id="text_17">
                <!-- 10(Kg) -->
                <g transform="translate(73.609387 194.665393) scale(0.14 -0.14)">
                    <defs>
                        <path id="DejaVuSans-Bold-31" d="M 750 831
L 1813 831 
L 1813 3847 
L 722 3622 
L 722 4441 
L 1806 4666 
L 2950 4666 
L 2950 831 
L 4013 831 
L 4013 0 
L 750 0 
L 750 831 
z
" transform="scale(0.015625)"/>
                        <path id="DejaVuSans-Bold-30" d="M 2944 2338
Q 2944 3213 2780 3570 
Q 2616 3928 2228 3928 
Q 1841 3928 1675 3570 
Q 1509 3213 1509 2338 
Q 1509 1453 1675 1090 
Q 1841 728 2228 728 
Q 2613 728 2778 1090 
Q 2944 1453 2944 2338 
z
M 4147 2328 
Q 4147 1169 3647 539 
Q 3147 -91 2228 -91 
Q 1306 -91 806 539 
Q 306 1169 306 2328 
Q 306 3491 806 4120 
Q 1306 4750 2228 4750 
Q 3147 4750 3647 4120 
Q 4147 3491 4147 2328 
z
" transform="scale(0.015625)"/>
                        <path id="DejaVuSans-Bold-28" d="M 2413 -844
L 1484 -844 
Q 1006 -72 778 623 
Q 550 1319 550 2003 
Q 550 2688 779 3389 
Q 1009 4091 1484 4856 
L 2413 4856 
Q 2013 4116 1813 3408 
Q 1613 2700 1613 2009 
Q 1613 1319 1811 609 
Q 2009 -100 2413 -844 
z
" transform="scale(0.015625)"/>
                        <path id="DejaVuSans-Bold-4b" d="M 588 4666
L 1791 4666 
L 1791 2963 
L 3525 4666 
L 4922 4666 
L 2675 2456 
L 5153 0 
L 3647 0 
L 1791 1838 
L 1791 0 
L 588 0 
L 588 4666 
z
" transform="scale(0.015625)"/>
                        <path id="DejaVuSans-Bold-67" d="M 2919 594
Q 2688 288 2409 144 
Q 2131 0 1766 0 
Q 1125 0 706 504 
Q 288 1009 288 1791 
Q 288 2575 706 3076 
Q 1125 3578 1766 3578 
Q 2131 3578 2409 3434 
Q 2688 3291 2919 2981 
L 2919 3500 
L 4044 3500 
L 4044 353 
Q 4044 -491 3511 -936 
Q 2978 -1381 1966 -1381 
Q 1638 -1381 1331 -1331 
Q 1025 -1281 716 -1178 
L 716 -306 
Q 1009 -475 1290 -558 
Q 1572 -641 1856 -641 
Q 2406 -641 2662 -400 
Q 2919 -159 2919 353 
L 2919 594 
z
M 2181 2772 
Q 1834 2772 1640 2515 
Q 1447 2259 1447 1791 
Q 1447 1309 1634 1061 
Q 1822 813 2181 813 
Q 2531 813 2725 1069 
Q 2919 1325 2919 1791 
Q 2919 2259 2725 2515 
Q 2531 2772 2181 2772 
z
" transform="scale(0.015625)"/>
                        <path id="DejaVuSans-Bold-29" d="M 513 -844
Q 913 -100 1113 609 
Q 1313 1319 1313 2009 
Q 1313 2700 1113 3408 
Q 913 4116 513 4856 
L 1441 4856 
Q 1916 4091 2145 3389 
Q 2375 2688 2375 2003 
Q 2375 1319 2147 623 
Q 1919 -72 1441 -844 
L 513 -844 
z
" transform="scale(0.015625)"/>
                    </defs>
                    <use xlink:href="#DejaVuSans-Bold-31"/>
                    <use xlink:href="#DejaVuSans-Bold-30" x="69.580078"/>
                    <use xlink:href="#DejaVuSans-Bold-28" x="139.160156"/>
                    <use xlink:href="#DejaVuSans-Bold-4b" x="184.863281"/>
                    <use xlink:href="#DejaVuSans-Bold-67" x="262.353516"/>
                    <use xlink:href="#DejaVuSans-Bold-29" x="333.935547"/>
                </g>
            </g>
            <g id="text_18">
                <!-- 8(Kg) -->
                <g transform="translate(194.164813 194.664665) scale(0.14 -0.14)">
                    <defs>
                        <path id="DejaVuSans-Bold-38" d="M 2228 2088
Q 1891 2088 1709 1903 
Q 1528 1719 1528 1375 
Q 1528 1031 1709 848 
Q 1891 666 2228 666 
Q 2563 666 2741 848 
Q 2919 1031 2919 1375 
Q 2919 1722 2741 1905 
Q 2563 2088 2228 2088 
z
M 1350 2484 
Q 925 2613 709 2878 
Q 494 3144 494 3541 
Q 494 4131 934 4440 
Q 1375 4750 2228 4750 
Q 3075 4750 3515 4442 
Q 3956 4134 3956 3541 
Q 3956 3144 3739 2878 
Q 3522 2613 3097 2484 
Q 3572 2353 3814 2058 
Q 4056 1763 4056 1313 
Q 4056 619 3595 264 
Q 3134 -91 2228 -91 
Q 1319 -91 855 264 
Q 391 619 391 1313 
Q 391 1763 633 2058 
Q 875 2353 1350 2484 
z
M 1631 3419 
Q 1631 3141 1786 2991 
Q 1941 2841 2228 2841 
Q 2509 2841 2662 2991 
Q 2816 3141 2816 3419 
Q 2816 3697 2662 3845 
Q 2509 3994 2228 3994 
Q 1941 3994 1786 3844 
Q 1631 3694 1631 3419 
z
" transform="scale(0.015625)"/>
                    </defs>
                    <use xlink:href="#DejaVuSans-Bold-38"/>
                    <use xlink:href="#DejaVuSans-Bold-28" x="69.580078"/>
                    <use xlink:href="#DejaVuSans-Bold-4b" x="115.283203"/>
                    <use xlink:href="#DejaVuSans-Bold-67" x="192.773438"/>
                    <use xlink:href="#DejaVuSans-Bold-29" x="264.355469"/>
                </g>
            </g>
            <g id="text_19">
                <!-- 5(Kg) -->
                <g transform="translate(307.850445 194.589686) scale(0.14 -0.14)">
                    <defs>
                        <path id="DejaVuSans-Bold-35" d="M 678 4666
L 3669 4666 
L 3669 3781 
L 1638 3781 
L 1638 3059 
Q 1775 3097 1914 3117 
Q 2053 3138 2203 3138 
Q 3056 3138 3531 2711 
Q 4006 2284 4006 1522 
Q 4006 766 3489 337 
Q 2972 -91 2053 -91 
Q 1656 -91 1267 -14 
Q 878 63 494 219 
L 494 1166 
Q 875 947 1217 837 
Q 1559 728 1863 728 
Q 2300 728 2551 942 
Q 2803 1156 2803 1522 
Q 2803 1891 2551 2103 
Q 2300 2316 1863 2316 
Q 1603 2316 1309 2248 
Q 1016 2181 678 2041 
L 678 4666 
z
" transform="scale(0.015625)"/>
                    </defs>
                    <use xlink:href="#DejaVuSans-Bold-35"/>
                    <use xlink:href="#DejaVuSans-Bold-28" x="69.580078"/>
                    <use xlink:href="#DejaVuSans-Bold-4b" x="115.283203"/>
                    <use xlink:href="#DejaVuSans-Bold-67" x="192.773438"/>
                    <use xlink:href="#DejaVuSans-Bold-29" x="264.355469"/>
                </g>
            </g>
            <g id="text_20">
                <!-- 8(Kg) -->
                <g transform="translate(78.480857 73.738856) scale(0.14 -0.14)">
                    <use xlink:href="#DejaVuSans-Bold-38"/>
                    <use xlink:href="#DejaVuSans-Bold-28" x="69.580078"/>
                    <use xlink:href="#DejaVuSans-Bold-4b" x="115.283203"/>
                    <use xlink:href="#DejaVuSans-Bold-67" x="192.773438"/>
                    <use xlink:href="#DejaVuSans-Bold-29" x="264.355469"/>
                </g>
            </g>
            <g id="text_21">
                <!-- 5(Kg) -->
                <g transform="translate(194.410446 73.726003) scale(0.14 -0.14)">
                    <use xlink:href="#DejaVuSans-Bold-35"/>
                    <use xlink:href="#DejaVuSans-Bold-28" x="69.580078"/>
                    <use xlink:href="#DejaVuSans-Bold-4b" x="115.283203"/>
                    <use xlink:href="#DejaVuSans-Bold-67" x="192.773438"/>
                    <use xlink:href="#DejaVuSans-Bold-29" x="264.355469"/>
                </g>
            </g>
            <g id="text_22">
                <!-- 5(Kg) -->
                <g transform="translate(307.720261 73.738743) scale(0.14 -0.14)">
                    <use xlink:href="#DejaVuSans-Bold-35"/>
                    <use xlink:href="#DejaVuSans-Bold-28" x="69.580078"/>
                    <use xlink:href="#DejaVuSans-Bold-4b" x="115.283203"/>
                    <use xlink:href="#DejaVuSans-Bold-67" x="192.773438"/>
                    <use xlink:href="#DejaVuSans-Bold-29" x="264.355469"/>
                </g>
            </g>
            <g id="text_23">
                <!-- 1.60(c) -->
                <g transform="translate(247.830131 186.854506) scale(0.1 -0.1)">
                    <defs>
                        <path id="DejaVuSans-31" d="M 794 531
L 1825 531 
L 1825 4091 
L 703 3866 
L 703 4441 
L 1819 4666 
L 2450 4666 
L 2450 531 
L 3481 531 
L 3481 0 
L 794 0 
L 794 531 
z
" transform="scale(0.015625)"/>
                        <path id="DejaVuSans-2e" d="M 684 794
L 1344 794 
L 1344 0 
L 684 0 
L 684 794 
z
" transform="scale(0.015625)"/>
                    </defs>
                    <use xlink:href="#DejaVuSans-31"/>
                    <use xlink:href="#DejaVuSans-2e" x="63.623047"/>
                    <use xlink:href="#DejaVuSans-36" x="95.410156"/>
                    <use xlink:href="#DejaVuSans-30" x="159.033203"/>
                    <use xlink:href="#DejaVuSans-28" x="222.65625"/>
                    <use xlink:href="#DejaVuSans-63" x="261.669922"/>
                    <use xlink:href="#DejaVuSans-29" x="316.650391"/>
                </g>
            </g>
            <g id="text_24">
                <!-- 2.55(c) -->
                <g transform="translate(326.721568 99.536961) rotate(-270.04124) scale(0.1 -0.1)">
                    <defs>
                        <path id="DejaVuSans-35" d="M 691 4666
L 3169 4666 
L 3169 4134 
L 1269 4134 
L 1269 2991 
Q 1406 3038 1543 3061 
Q 1681 3084 1819 3084 
Q 2600 3084 3056 2656 
Q 3513 2228 3513 1497 
Q 3513 744 3044 326 
Q 2575 -91 1722 -91 
Q 1428 -91 1123 -41 
Q 819 9 494 109 
L 494 744 
Q 775 591 1075 516 
Q 1375 441 1709 441 
Q 2250 441 2565 725 
Q 2881 1009 2881 1497 
Q 2881 1984 2565 2268 
Q 2250 2553 1709 2553 
Q 1456 2553 1204 2497 
Q 953 2441 691 2322 
L 691 4666 
z
" transform="scale(0.015625)"/>
                    </defs>
                    <use xlink:href="#DejaVuSans-32"/>
                    <use xlink:href="#DejaVuSans-2e" x="63.623047"/>
                    <use xlink:href="#DejaVuSans-35" x="95.410156"/>
                    <use xlink:href="#DejaVuSans-35" x="159.033203"/>
                    <use xlink:href="#DejaVuSans-28" x="222.65625"/>
                    <use xlink:href="#DejaVuSans-63" x="261.669922"/>
                    <use xlink:href="#DejaVuSans-29" x="316.650391"/>
                </g>
            </g>
            <g id="text_25">
                <!-- 1.60(c) -->
                <g transform="translate(262.082231 65.955821) scale(0.1 -0.1)">
                    <use xlink:href="#DejaVuSans-31"/>
                    <use xlink:href="#DejaVuSans-2e" x="63.623047"/>
                    <use xlink:href="#DejaVuSans-36" x="95.410156"/>
                    <use xlink:href="#DejaVuSans-30" x="159.033203"/>
                    <use xlink:href="#DejaVuSans-28" x="222.65625"/>
                    <use xlink:href="#DejaVuSans-63" x="261.669922"/>
                    <use xlink:href="#DejaVuSans-29" x="316.650391"/>
                </g>
            </g>
            <g id="text_26">
                <!-- 1.02(c) -->
                <g transform="translate(147.462987 67.851174) rotate(-0.009507) scale(0.1 -0.1)">
                    <use xlink:href="#DejaVuSans-31"/>
                    <use xlink:href="#DejaVuSans-2e" x="63.623047"/>
                    <use xlink:href="#DejaVuSans-30" x="95.410156"/>
                    <use xlink:href="#DejaVuSans-32" x="159.033203"/>
                    <use xlink:href="#DejaVuSans-28" x="222.65625"/>
                    <use xlink:href="#DejaVuSans-63" x="261.669922"/>
                    <use xlink:href="#DejaVuSans-29" x="316.650391"/>
                </g>
            </g>
            <g id="text_27">
                <!-- 1.28(c) -->
                <g transform="translate(102.942954 125.659128) rotate(-89.999683) scale(0.1 -0.1)">
                    <use xlink:href="#DejaVuSans-31"/>
                    <use xlink:href="#DejaVuSans-2e" x="63.623047"/>
                    <use xlink:href="#DejaVuSans-32" x="95.410156"/>
                    <use xlink:href="#DejaVuSans-38" x="159.033203"/>
                    <use xlink:href="#DejaVuSans-28" x="222.65625"/>
                    <use xlink:href="#DejaVuSans-63" x="261.669922"/>
                    <use xlink:href="#DejaVuSans-29" x="316.650391"/>
                </g>
            </g>
            <g id="text_28">
                <!-- 3.18(c) -->
                <g transform="translate(106.696596 198.723622) rotate(-276.727295) scale(0.1 -0.1)">
                    <defs>
                        <path id="DejaVuSans-33" d="M 2597 2516
Q 3050 2419 3304 2112 
Q 3559 1806 3559 1356 
Q 3559 666 3084 287 
Q 2609 -91 1734 -91 
Q 1441 -91 1130 -33 
Q 819 25 488 141 
L 488 750 
Q 750 597 1062 519 
Q 1375 441 1716 441 
Q 2309 441 2620 675 
Q 2931 909 2931 1356 
Q 2931 1769 2642 2001 
Q 2353 2234 1838 2234 
L 1294 2234 
L 1294 2753 
L 1863 2753 
Q 2328 2753 2575 2939 
Q 2822 3125 2822 3475 
Q 2822 3834 2567 4026 
Q 2313 4219 1838 4219 
Q 1578 4219 1281 4162 
Q 984 4106 628 3988 
L 628 4550 
Q 988 4650 1302 4700 
Q 1616 4750 1894 4750 
Q 2613 4750 3031 4423 
Q 3450 4097 3450 3541 
Q 3450 3153 3228 2886 
Q 3006 2619 2597 2516 
z
" transform="scale(0.015625)"/>
                    </defs>
                    <use xlink:href="#DejaVuSans-33"/>
                    <use xlink:href="#DejaVuSans-2e" x="63.623047"/>
                    <use xlink:href="#DejaVuSans-31" x="95.410156"/>
                    <use xlink:href="#DejaVuSans-38" x="159.033203"/>
                    <use xlink:href="#DejaVuSans-28" x="222.65625"/>
                    <use xlink:href="#DejaVuSans-63" x="261.669922"/>
                    <use xlink:href="#DejaVuSans-29" x="316.650391"/>
                </g>
            </g>
            <g id="legend_1">
                <g id="patch_20">
                    <path d="M 224.335781 303.834
L 408.67 303.834 
Q 410.97 303.834 410.97 301.534 
L 410.97 221.364625 
Q 410.97 219.064625 408.67 219.064625 
L 224.335781 219.064625 
Q 222.035781 219.064625 222.035781 221.364625 
L 222.035781 301.534 
Q 222.035781 303.834 224.335781 303.834 
z
" style="fill: #4d4d4d; opacity: 0.5; stroke: #4d4d4d; stroke-linejoin: miter"/>
                </g>
                <g id="patch_21">
                    <path d="M 222.335781 301.834
L 406.67 301.834 
Q 408.97 301.834 408.97 299.534 
L 408.97 219.364625 
Q 408.97 217.064625 406.67 217.064625 
L 222.335781 217.064625 
Q 220.035781 217.064625 220.035781 219.364625 
L 220.035781 299.534 
Q 220.035781 301.834 222.335781 301.834 
z
" style="fill: #ffffff; stroke: #cccccc; stroke-linejoin: miter"/>
                </g>
                <g id="patch_22">
                    <path d="M 231.535781 237.302828
L 254.535781 237.302828 
L 254.535781 229.252828 
L 231.535781 229.252828 
z
" style="stroke: #000000; stroke-linejoin: miter"/>
                </g>
                <g id="text_29">
                    <!-- Route -->
                    <g transform="translate(263.735781 237.302828) scale(0.115 -0.115)">
                        <defs>
                            <path id="DejaVuSans-52" d="M 2841 2188
Q 3044 2119 3236 1894 
Q 3428 1669 3622 1275 
L 4263 0 
L 3584 0 
L 2988 1197 
Q 2756 1666 2539 1819 
Q 2322 1972 1947 1972 
L 1259 1972 
L 1259 0 
L 628 0 
L 628 4666 
L 2053 4666 
Q 2853 4666 3247 4331 
Q 3641 3997 3641 3322 
Q 3641 2881 3436 2590 
Q 3231 2300 2841 2188 
z
M 1259 4147 
L 1259 2491 
L 2053 2491 
Q 2509 2491 2742 2702 
Q 2975 2913 2975 3322 
Q 2975 3731 2742 3939 
Q 2509 4147 2053 4147 
L 1259 4147 
z
" transform="scale(0.015625)"/>
                            <path id="DejaVuSans-75" d="M 544 1381
L 544 3500 
L 1119 3500 
L 1119 1403 
Q 1119 906 1312 657 
Q 1506 409 1894 409 
Q 2359 409 2629 706 
Q 2900 1003 2900 1516 
L 2900 3500 
L 3475 3500 
L 3475 0 
L 2900 0 
L 2900 538 
Q 2691 219 2414 64 
Q 2138 -91 1772 -91 
Q 1169 -91 856 284 
Q 544 659 544 1381 
z
M 1991 3584 
L 1991 3584 
z
" transform="scale(0.015625)"/>
                        </defs>
                        <use xlink:href="#DejaVuSans-52"/>
                        <use xlink:href="#DejaVuSans-6f" x="64.982422"/>
                        <use xlink:href="#DejaVuSans-75" x="126.164062"/>
                        <use xlink:href="#DejaVuSans-74" x="189.542969"/>
                        <use xlink:href="#DejaVuSans-65" x="228.751953"/>
                    </g>
                </g>
                <g id="patch_23">
                    <path d="M 231.535781 254.182672
L 254.535781 254.182672 
L 254.535781 246.132672 
L 231.535781 246.132672 
z
" style="fill: #ffffff; stroke: #ffffff; stroke-linejoin: miter"/>
                </g>
                <g id="text_30">
                    <!-- DDR capacity: 100(kg) -->
                    <g transform="translate(263.735781 254.182672) scale(0.115 -0.115)">
                        <defs>
                            <path id="DejaVuSans-44" d="M 1259 4147
L 1259 519 
L 2022 519 
Q 2988 519 3436 956 
Q 3884 1394 3884 2338 
Q 3884 3275 3436 3711 
Q 2988 4147 2022 4147 
L 1259 4147 
z
M 628 4666 
L 1925 4666 
Q 3281 4666 3915 4102 
Q 4550 3538 4550 2338 
Q 4550 1131 3912 565 
Q 3275 0 1925 0 
L 628 0 
L 628 4666 
z
" transform="scale(0.015625)"/>
                            <path id="DejaVuSans-70" d="M 1159 525
L 1159 -1331 
L 581 -1331 
L 581 3500 
L 1159 3500 
L 1159 2969 
Q 1341 3281 1617 3432 
Q 1894 3584 2278 3584 
Q 2916 3584 3314 3078 
Q 3713 2572 3713 1747 
Q 3713 922 3314 415 
Q 2916 -91 2278 -91 
Q 1894 -91 1617 61 
Q 1341 213 1159 525 
z
M 3116 1747 
Q 3116 2381 2855 2742 
Q 2594 3103 2138 3103 
Q 1681 3103 1420 2742 
Q 1159 2381 1159 1747 
Q 1159 1113 1420 752 
Q 1681 391 2138 391 
Q 2594 391 2855 752 
Q 3116 1113 3116 1747 
z
" transform="scale(0.015625)"/>
                            <path id="DejaVuSans-3a" d="M 750 794
L 1409 794 
L 1409 0 
L 750 0 
L 750 794 
z
M 750 3309 
L 1409 3309 
L 1409 2516 
L 750 2516 
L 750 3309 
z
" transform="scale(0.015625)"/>
                            <path id="DejaVuSans-6b" d="M 581 4863
L 1159 4863 
L 1159 1991 
L 2875 3500 
L 3609 3500 
L 1753 1863 
L 3688 0 
L 2938 0 
L 1159 1709 
L 1159 0 
L 581 0 
L 581 4863 
z
" transform="scale(0.015625)"/>
                            <path id="DejaVuSans-67" d="M 2906 1791
Q 2906 2416 2648 2759 
Q 2391 3103 1925 3103 
Q 1463 3103 1205 2759 
Q 947 2416 947 1791 
Q 947 1169 1205 825 
Q 1463 481 1925 481 
Q 2391 481 2648 825 
Q 2906 1169 2906 1791 
z
M 3481 434 
Q 3481 -459 3084 -895 
Q 2688 -1331 1869 -1331 
Q 1566 -1331 1297 -1286 
Q 1028 -1241 775 -1147 
L 775 -588 
Q 1028 -725 1275 -790 
Q 1522 -856 1778 -856 
Q 2344 -856 2625 -561 
Q 2906 -266 2906 331 
L 2906 616 
Q 2728 306 2450 153 
Q 2172 0 1784 0 
Q 1141 0 747 490 
Q 353 981 353 1791 
Q 353 2603 747 3093 
Q 1141 3584 1784 3584 
Q 2172 3584 2450 3431 
Q 2728 3278 2906 2969 
L 2906 3500 
L 3481 3500 
L 3481 434 
z
" transform="scale(0.015625)"/>
                        </defs>
                        <use xlink:href="#DejaVuSans-44"/>
                        <use xlink:href="#DejaVuSans-44" x="77.001953"/>
                        <use xlink:href="#DejaVuSans-52" x="154.003906"/>
                        <use xlink:href="#DejaVuSans-20" x="223.486328"/>
                        <use xlink:href="#DejaVuSans-63" x="255.273438"/>
                        <use xlink:href="#DejaVuSans-61" x="310.253906"/>
                        <use xlink:href="#DejaVuSans-70" x="371.533203"/>
                        <use xlink:href="#DejaVuSans-61" x="435.009766"/>
                        <use xlink:href="#DejaVuSans-63" x="496.289062"/>
                        <use xlink:href="#DejaVuSans-69" x="551.269531"/>
                        <use xlink:href="#DejaVuSans-74" x="579.052734"/>
                        <use xlink:href="#DejaVuSans-79" x="618.261719"/>
                        <use xlink:href="#DejaVuSans-3a" x="670.191406"/>
                        <use xlink:href="#DejaVuSans-20" x="703.882812"/>
                        <use xlink:href="#DejaVuSans-31" x="735.669922"/>
                        <use xlink:href="#DejaVuSans-30" x="799.292969"/>
                        <use xlink:href="#DejaVuSans-30" x="862.916016"/>
                        <use xlink:href="#DejaVuSans-28" x="926.539062"/>
                        <use xlink:href="#DejaVuSans-6b" x="965.552734"/>
                        <use xlink:href="#DejaVuSans-67" x="1023.462891"/>
                        <use xlink:href="#DejaVuSans-29" x="1086.939453"/>
                    </g>
                </g>
                <g id="patch_24">
                    <path d="M 231.535781 271.062516
L 254.535781 271.062516 
L 254.535781 263.012516 
L 231.535781 263.012516 
z
" style="fill: #ffffff; stroke: #ffffff; stroke-linejoin: miter"/>
                </g>
                <g id="text_31">
                    <!-- Total cost: 11.22(c) -->
                    <g transform="translate(263.735781 271.062516) scale(0.115 -0.115)">
                        <defs>
                            <path id="DejaVuSans-54" d="M -19 4666
L 3928 4666 
L 3928 4134 
L 2272 4134 
L 2272 0 
L 1638 0 
L 1638 4134 
L -19 4134 
L -19 4666 
z
" transform="scale(0.015625)"/>
                            <path id="DejaVuSans-6c" d="M 603 4863
L 1178 4863 
L 1178 0 
L 603 0 
L 603 4863 
z
" transform="scale(0.015625)"/>
                        </defs>
                        <use xlink:href="#DejaVuSans-54"/>
                        <use xlink:href="#DejaVuSans-6f" x="44.083984"/>
                        <use xlink:href="#DejaVuSans-74" x="105.265625"/>
                        <use xlink:href="#DejaVuSans-61" x="144.474609"/>
                        <use xlink:href="#DejaVuSans-6c" x="205.753906"/>
                        <use xlink:href="#DejaVuSans-20" x="233.537109"/>
                        <use xlink:href="#DejaVuSans-63" x="265.324219"/>
                        <use xlink:href="#DejaVuSans-6f" x="320.304688"/>
                        <use xlink:href="#DejaVuSans-73" x="381.486328"/>
                        <use xlink:href="#DejaVuSans-74" x="433.585938"/>
                        <use xlink:href="#DejaVuSans-3a" x="472.794922"/>
                        <use xlink:href="#DejaVuSans-20" x="506.486328"/>
                        <use xlink:href="#DejaVuSans-31" x="538.273438"/>
                        <use xlink:href="#DejaVuSans-31" x="601.896484"/>
                        <use xlink:href="#DejaVuSans-2e" x="665.519531"/>
                        <use xlink:href="#DejaVuSans-32" x="697.306641"/>
                        <use xlink:href="#DejaVuSans-32" x="760.929688"/>
                        <use xlink:href="#DejaVuSans-28" x="824.552734"/>
                        <use xlink:href="#DejaVuSans-63" x="863.566406"/>
                        <use xlink:href="#DejaVuSans-29" x="918.546875"/>
                    </g>
                </g>
                <g id="patch_25">
                    <path d="M 231.535781 287.942359
L 254.535781 287.942359 
L 254.535781 279.892359 
L 231.535781 279.892359 
z
" style="fill: #ffffff; stroke: #ffffff; stroke-linejoin: miter"/>
                </g>
                <g id="text_32">
                    <!-- Total loaded: 33.00(Kg) -->
                    <g transform="translate(263.735781 287.942359) scale(0.115 -0.115)">
                        <defs>
                            <path id="DejaVuSans-4b" d="M 628 4666
L 1259 4666 
L 1259 2694 
L 3353 4666 
L 4166 4666 
L 1850 2491 
L 4331 0 
L 3500 0 
L 1259 2247 
L 1259 0 
L 628 0 
L 628 4666 
z
" transform="scale(0.015625)"/>
                        </defs>
                        <use xlink:href="#DejaVuSans-54"/>
                        <use xlink:href="#DejaVuSans-6f" x="44.083984"/>
                        <use xlink:href="#DejaVuSans-74" x="105.265625"/>
                        <use xlink:href="#DejaVuSans-61" x="144.474609"/>
                        <use xlink:href="#DejaVuSans-6c" x="205.753906"/>
                        <use xlink:href="#DejaVuSans-20" x="233.537109"/>
                        <use xlink:href="#DejaVuSans-6c" x="265.324219"/>
                        <use xlink:href="#DejaVuSans-6f" x="293.107422"/>
                        <use xlink:href="#DejaVuSans-61" x="354.289062"/>
                        <use xlink:href="#DejaVuSans-64" x="415.568359"/>
                        <use xlink:href="#DejaVuSans-65" x="479.044922"/>
                        <use xlink:href="#DejaVuSans-64" x="540.568359"/>
                        <use xlink:href="#DejaVuSans-3a" x="604.044922"/>
                        <use xlink:href="#DejaVuSans-20" x="637.736328"/>
                        <use xlink:href="#DejaVuSans-33" x="669.523438"/>
                        <use xlink:href="#DejaVuSans-33" x="733.146484"/>
                        <use xlink:href="#DejaVuSans-2e" x="796.769531"/>
                        <use xlink:href="#DejaVuSans-30" x="828.556641"/>
                        <use xlink:href="#DejaVuSans-30" x="892.179688"/>
                        <use xlink:href="#DejaVuSans-28" x="955.802734"/>
                        <use xlink:href="#DejaVuSans-4b" x="994.816406"/>
                        <use xlink:href="#DejaVuSans-67" x="1060.392578"/>
                        <use xlink:href="#DejaVuSans-29" x="1123.869141"/>
                    </g>
                </g>
            </g>
        </g>
    </g>
    <defs>
        <clipPath id="p4dec9288bb">
            <rect x="57.6" y="41.472" width="357.12" height="266.112"/>
        </clipPath>
    </defs>
</svg>
